<?xml version="1.0" encoding="utf-8"?>
<!-- Generator: Adobe Illustrator 15.1.0, SVG Export Plug-In . SVG Version: 6.00 Build 0)  -->
<!DOCTYPE svg PUBLIC "-//W3C//DTD SVG 1.1//EN" "http://www.w3.org/Graphics/SVG/1.1/DTD/svg11.dtd">
<svg version="1.1" id="Layer_1" xmlns="http://www.w3.org/2000/svg" xmlns:xlink="http://www.w3.org/1999/xlink" x="0px" y="0px"
	 width="160px" height="60px" viewBox="0 0 160 60" enable-background="new 0 0 160 60" xml:space="preserve">
<g>
	<path fill="#231F20" d="M12.502,22.258l4.037-4.148h18.59l-4.429,5.046H17.885v23.771h-5.383V22.258z"/>
	<path fill="#231F20" d="M32.041,23.451l4.638-5.342H54.28l4.035,4.148v12.557H38.026v7.064h25.949l-4.897,5.047H36.678
		l-4.638-4.148V23.451z M38.026,29.77h14.909v-6.614H38.026V29.77z"/>
	<path fill="#231F20" d="M89.611,42.996l-4.147,3.93H60.697l4.438-4.754l-0.527-19.914l4.261-4.148h15.359V6.564l5.383,3.025V42.996
		z M84.228,23.155H69.993v18.724h14.235V23.155z"/>
	<line fill="none" stroke="#231F20" stroke-width="0.995" x1="121.193" y1="43.551" x2="121.193" y2="56.471"/>
	<line fill="none" stroke="#231F20" stroke-width="0.995" x1="121.193" y1="3.529" x2="121.193" y2="17.581"/>
	<line fill="none" stroke="#231F20" stroke-width="0.995" x1="147.498" y1="29.751" x2="95.049" y2="29.751"/>
	<path fill="none" stroke="#231F20" stroke-width="0.995" d="M139.939,29.751c0,10.272-8.326,18.595-18.596,18.595
		c-10.274,0-18.6-8.322-18.6-18.595c0-10.271,8.325-18.6,18.6-18.6C131.613,11.151,139.939,19.479,139.939,29.751z"/>
	<path fill="none" stroke="#231F20" stroke-width="3.4619" d="M143.659,29.751c0,12.325-9.99,22.315-22.314,22.315
		c-12.329,0-22.319-9.99-22.319-22.315c0-12.328,9.99-22.319,22.319-22.319C133.668,7.432,143.659,17.423,143.659,29.751z"/>
	<g>
		<path fill="#EA2D2E" d="M120.817,16.315h9.53v5.354h-12.514v5.322c1.849-1.958,2.585-2.032,6.095-2.032
			c6.723,0,8.685,2.659,8.685,9.088c0,8.828-3.218,10.199-11.229,10.199c-6.842,0-10.386-1.406-10.57-8.279h7.02
			c0.149,2.328,1.478,2.514,3.551,2.514c3.213,0,4.209-0.074,4.209-3.66c0-3.543-0.075-4.32-4.209-4.32c-2.37,0-3.146,0-3.551,1.328
			h-6.352c0,0,0.08-5.351,0-10.428c-0.085-5.084,3.77-5.085,3.77-5.085H120.817"/>
	</g>
</g>
</svg>
